<?xml version="1.0" encoding="UTF-8" standalone="no"?>
<!-- Created with Inkscape (http://www.inkscape.org/) -->

<svg
   width="169.33333mm"
   height="169.33333mm"
   viewBox="0 0 169.33333 169.33333"
   version="1.1"
   id="svg5"
   inkscape:version="1.1 (c68e22c387, 2021-05-23)"
   sodipodi:docname="favicon.svg"
   xmlns:inkscape="http://www.inkscape.org/namespaces/inkscape"
   xmlns:sodipodi="http://sodipodi.sourceforge.net/DTD/sodipodi-0.dtd"
   xmlns="http://www.w3.org/2000/svg"
   xmlns:svg="http://www.w3.org/2000/svg">
  <sodipodi:namedview
     id="namedview7"
     pagecolor="#ffffff"
     bordercolor="#666666"
     borderopacity="1.0"
     inkscape:pageshadow="2"
     inkscape:pageopacity="0.0"
     inkscape:pagecheckerboard="0"
     inkscape:document-units="mm"
     showgrid="false"
     fit-margin-top="0"
     fit-margin-left="0"
     fit-margin-right="0"
     fit-margin-bottom="0"
     inkscape:zoom="0.67081229"
     inkscape:cx="363.73812"
     inkscape:cy="382.37224"
     inkscape:window-width="1396"
     inkscape:window-height="752"
     inkscape:window-x="292"
     inkscape:window-y="127"
     inkscape:window-maximized="0"
     inkscape:current-layer="layer1" />
  <defs
     id="defs2" />
  <g
     inkscape:label="Layer 1"
     inkscape:groupmode="layer"
     id="layer1"
     transform="translate(-8.6305343,-47.525765)">
    <g
       id="g57"
       transform="translate(0.21353354,-1.5167349)">
      <path
         style="fill:#fefefe;stroke-width:0.264583"
         d="M 8.4170008,133.70916 V 49.0425 H 93.083666 177.75033 v 84.66666 84.66667 H 93.083666 8.4170008 Z m 88.8999982,57.15 v -4.7625 h 4.762501 4.7625 v -4.7625 -4.7625 h 4.7625 4.7625 v -4.7625 -4.7625 h 4.7625 4.7625 v -4.7625 -4.7625 h 4.7625 4.7625 v -4.7625 -4.7625 h 4.7625 4.7625 v -4.7625 -4.7625 h 4.7625 4.7625 v -4.7625 -4.76249 h 4.7625 4.7625 V 110.02896 91.111249 h -4.7625 -4.7625 v -4.7625 -4.7625 h -4.7625 -4.7625 v -4.764262 -4.764263 l -18.85156,0.06791 -18.85157,0.06791 v 4.630208 4.630209 l -4.7625,0.132291 -4.762496,0.132292 v 4.696529 4.696528 l -4.696354,-1.74e-4 -4.696354,-1.75e-4 v -4.7625 -4.7625 h -4.7625 -4.7625 v -4.7625 -4.762499 H 59.481583 40.167 v 4.762499 4.7625 H 35.4045 30.642 v 4.7625 4.7625 h -4.7625 -4.762499 v 18.917708 18.91771 H 25.8795 30.642 v 4.76249 4.7625 h 4.7625 4.7625 v 4.7625 4.7625 h 4.7625 4.7625 v 4.7625 4.7625 h 4.7625 4.7625 v 4.7625 4.7625 h 4.7625 4.7625 v 4.7625 4.7625 h 4.7625 4.762499 v 4.7625 4.7625 h 4.7625 4.7625 v 4.7625 4.7625 h 4.7625 4.7625 z M 41.225333,110.29354 v -9.39271 h 4.7625 4.7625 v -4.762498 -4.762499 h 9.525 9.525 v 4.630208 4.630209 h -4.7625 -4.7625 v 4.7625 4.7625 h -4.7625 -4.7625 v 4.7625 4.7625 h -4.7625 -4.7625 z"
         id="path73" />
      <path
         style="fill:#feb4b4;stroke-width:0.264583"
         d="m 43.540438,100.7037 c 1.346067,-0.048 3.548723,-0.048 4.894791,0 1.346068,0.048 0.24474,0.0873 -2.447396,0.0873 -2.692135,0 -3.793463,-0.0393 -2.447395,-0.0873 z m 11.906249,-9.525921 c 2.655756,-0.04316 7.001537,-0.04316 9.657292,0 2.655755,0.04316 0.482864,0.07846 -4.828646,0.07846 -5.31151,0 -7.484401,-0.03531 -4.828646,-0.07846 z m 42.243711,-4.82903 c 0,-2.546614 0.03968,-3.588411 0.08818,-2.315104 0.0485,1.273307 0.0485,3.356901 0,4.630208 -0.0485,1.273308 -0.08818,0.231511 -0.08818,-2.315104 z m 9.525002,-9.525 c 0,-2.546614 0.0397,-3.588411 0.0882,-2.315104 0.0485,1.273308 0.0485,3.356901 0,4.630209 -0.0485,1.273307 -0.0882,0.23151 -0.0882,-2.315105 z"
         id="path71" />
      <path
         style="fill:#969696;stroke-width:0.264583"
         d="m 90.107103,195.42453 c 1.346068,-0.048 3.548724,-0.048 4.894792,0 1.346068,0.048 0.24474,0.0873 -2.447396,0.0873 -2.692135,0 -3.793463,-0.0393 -2.447396,-0.0873 z m -9.670674,-9.52467 c 1.265947,-0.0484 3.409072,-0.0486 4.7625,-5.3e-4 1.353429,0.0481 0.317654,0.0877 -2.301721,0.088 -2.619375,2.6e-4 -3.726725,-0.0391 -2.460779,-0.0875 z m 19.195674,-2.7e-4 c 1.346067,-0.048 3.548727,-0.048 4.894787,0 1.34607,0.048 0.24474,0.0873 -2.44739,0.0873 -2.692136,0 -3.793465,-0.0393 -2.447397,-0.0873 z M 23.432105,91.178763 c 1.346067,-0.04802 3.548724,-0.04802 4.894791,0 1.346068,0.04802 0.24474,0.08731 -2.447396,0.08731 -2.692135,0 -3.793463,-0.03929 -2.447395,-0.08731 z m 67.204165,0 c 1.346068,-0.04802 3.548724,-0.04802 4.894792,0 1.346067,0.04802 0.244739,0.08731 -2.447396,0.08731 -2.692136,0 -3.793464,-0.03929 -2.447396,-0.08731 z m 66.14583,0 c 1.34607,-0.04802 3.54873,-0.04802 4.89479,0 1.34607,0.04802 0.24474,0.08731 -2.44739,0.08731 -2.69214,0 -3.79347,-0.03929 -2.4474,-0.08731 z m -123.824996,-9.525 c 1.346068,-0.04802 3.548724,-0.04802 4.894792,0 1.346068,0.04802 0.24474,0.08731 -2.447396,0.08731 -2.692135,0 -3.793463,-0.03929 -2.447396,-0.08731 z m 48.154166,0 c 1.346068,-0.04802 3.548724,-0.04802 4.894792,0 1.346067,0.04802 0.244739,0.08731 -2.447396,0.08731 -2.692135,0 -3.793463,-0.03929 -2.447396,-0.08731 z m 19.05,0 c 1.34607,-0.04802 3.54872,-0.04802 4.89479,0 1.34607,0.04802 0.24474,0.08731 -2.44739,0.08731 -2.69214,0 -3.793468,-0.03929 -2.4474,-0.08731 z m 47.09583,0 c 1.34607,-0.04802 3.54873,-0.04802 4.89479,0 1.34607,0.04802 0.24474,0.08731 -2.44739,0.08731 -2.69214,0 -3.79347,-0.03929 -2.4474,-0.08731 z M 49.758146,72.127497 c 5.34789,-0.04002 14.098984,-0.04002 19.446874,0 5.347891,0.04002 0.972344,0.07277 -9.723437,0.07277 -10.695781,0 -15.071328,-0.03275 -9.723437,-0.07277 z m 66.939584,6e-6 c 5.20237,-0.04012 13.71534,-0.04012 18.91771,0 5.20237,0.04012 0.94588,0.07294 -9.45886,0.07294 -10.40474,0 -14.66122,-0.03282 -9.45885,-0.07294 z"
         id="path69" />
      <path
         style="fill:#5b5b5b;stroke-width:0.264583"
         d="m 71.176013,176.37486 c 1.265946,-0.0484 3.409071,-0.0486 4.7625,-5.3e-4 1.353428,0.0481 0.317653,0.0877 -2.301722,0.088 -2.619375,2.6e-4 -3.726725,-0.0391 -2.460778,-0.0875 z m 37.835417,0 c 1.26595,-0.0484 3.40907,-0.0486 4.7625,-5.3e-4 1.35343,0.0481 0.31765,0.0877 -2.30172,0.088 -2.61938,2.6e-4 -3.72673,-0.0391 -2.46078,-0.0875 z m 7.21391,-4.96257 0.009,-4.49792 4.63021,-0.009 4.63021,-0.009 -4.55784,0.0814 -4.55784,0.0814 -0.0817,4.42569 -0.0817,4.42569 0.009,-4.49792 z m -54.693236,-4.56276 c 1.346068,-0.048 3.548724,-0.048 4.894791,0 1.346068,0.048 0.24474,0.0873 -2.447395,0.0873 -2.692136,0 -3.793464,-0.0393 -2.447396,-0.0873 z m 64.218236,-4.96224 0.009,-4.49792 4.63021,-0.009 4.63021,-0.009 -4.55784,0.0814 -4.55784,0.0814 -0.0817,4.42569 -0.0817,4.42569 0.009,-4.49792 z m -73.743236,-4.56276 c 1.346068,-0.048 3.548724,-0.048 4.894792,0 1.346067,0.048 0.244739,0.0873 -2.447396,0.0873 -2.692135,0 -3.793464,-0.0393 -2.447396,-0.0873 z m 83.268236,-4.96224 0.009,-4.49792 4.69028,-0.0722 4.69027,-0.0722 0.0722,-4.69027 0.0722,-4.69028 4.69027,-0.0722 4.69027,-0.0722 0.0722,-4.69027 0.0722,-4.69028 4.69458,-0.0722 4.69458,-0.0722 0.0706,-18.71318 0.0706,-18.713169 -0.003,18.785419 -0.003,18.78541 -4.69028,0.0722 -4.69027,0.0722 -0.0722,4.69027 -0.0722,4.69027 -4.69028,0.0722 -4.69027,0.0722 -0.0722,4.69027 -0.0722,4.69027 -4.69013,0.0722 -4.69014,0.0722 -0.0817,4.4257 -0.0817,4.42569 0.009,-4.49792 z m -92.793236,-4.56276 c 1.346068,-0.048 3.548724,-0.048 4.894792,0 1.346068,0.048 0.244739,0.0873 -2.447396,0.0873 -2.692135,0 -3.793463,-0.0393 -2.447396,-0.0873 z m -9.525,-9.525 c 1.346068,-0.048 3.548724,-0.048 4.894792,0 1.346068,0.048 0.24474,0.0873 -2.447396,0.0873 -2.692135,0 -3.793463,-0.0393 -2.447396,-0.0873 z m -9.524999,-9.525 c 1.346067,-0.048 3.548724,-0.048 4.894791,0 1.346068,0.048 0.24474,0.0873 -2.447396,0.0873 -2.692135,0 -3.793463,-0.0393 -2.447395,-0.0873 z M 154.31174,86.481041 c 2.6e-4,-2.619375 0.0399,-3.65515 0.088,-2.301722 0.0481,1.353429 0.0479,3.496554 -5.2e-4,4.7625 -0.0484,1.265947 -0.0878,0.158597 -0.0875,-2.460778 z m -9.525,-9.525 c 2.6e-4,-2.619375 0.0399,-3.655149 0.088,-2.301721 0.0481,1.353428 0.0479,3.496553 -5.3e-4,4.7625 -0.0484,1.265946 -0.0878,0.158596 -0.0875,-2.460779 z"
         id="path67" />
      <path
         style="fill:#fc0000;stroke-width:0.264583"
         d="m 87.791999,181.06958 v -4.7625 h -4.7625 -4.7625 v -4.7625 -4.7625 H 73.5045 68.742 v -4.7625 -4.7625 H 63.9795 59.217 v -4.7625 -4.7625 H 54.4545 49.692 v -4.7625 -4.7625 H 44.9295 40.167 v -4.7625 -4.7625 H 35.4045 30.642 V 110.02896 91.375833 h 4.7625 4.7625 v -4.7625 -4.7625 h 19.314583 19.314583 v 4.7625 4.7625 h 4.7625 4.7625 v 4.762499 4.762498 h 4.7625 4.7625 v -4.762498 -4.762499 h 4.762504 4.7625 v -4.7625 -4.7625 l 18.71927,-1.75e-4 18.71927,-1.75e-4 v 4.696529 4.696529 l 4.7625,0.132292 4.7625,0.132291 v 18.520836 18.52083 l -4.7625,0.13229 -4.7625,0.13229 v 4.63021 4.63021 l -4.71029,0.13229 -4.71027,0.13229 7.9e-4,4.63021 7.9e-4,4.63021 -4.77306,0.13229 -4.77306,0.13229 0.0345,4.69636 0.0345,4.69635 h -4.77322 -4.77323 v 4.7625 4.7625 h -4.7625 -4.7625 v 4.7625 4.7625 h -4.7625 -4.7625 v 4.7625 4.7625 h -4.7625 -4.7625 v -4.7625 z M 50.750333,114.92375 v -4.7625 h 4.7625 4.7625 v -4.7625 -4.7625 h 4.7625 4.7625 v -4.762501 -4.7625 h -9.525 -9.525 v 4.7625 4.762501 h -4.7625 -4.7625 v 9.525 9.525 h 4.7625 4.7625 z"
         id="path65" />
      <path
         style="fill:#9f0000;stroke-width:0.264583"
         d="m 89.987803,185.89948 c 1.280453,-0.0486 3.304516,-0.0484 4.497916,5.2e-4 1.193403,0.0489 0.145759,0.0887 -2.328095,0.0884 -2.473854,-2.7e-4 -3.450272,-0.0403 -2.169821,-0.0889 z m -9.405699,-9.52495 c 1.346067,-0.048 3.548723,-0.048 4.894791,0 1.346068,0.048 0.24474,0.0873 -2.447396,0.0873 -2.692135,0 -3.793463,-0.0393 -2.447395,-0.0873 z m 19.168908,2.7e-4 c 1.265948,-0.0484 3.409068,-0.0486 4.762498,-5.3e-4 1.35343,0.0481 0.31766,0.0877 -2.30172,0.088 -2.619374,2.6e-4 -3.726724,-0.0391 -2.460778,-0.0875 z m -28.693908,-9.52527 c 1.346067,-0.048 3.548724,-0.048 4.894791,0 1.346068,0.048 0.24474,0.0873 -2.447395,0.0873 -2.692136,0 -3.793464,-0.0393 -2.447396,-0.0873 z m 38.099996,0 c 1.34607,-0.048 3.54873,-0.048 4.89479,0 1.34607,0.048 0.24474,0.0873 -2.44739,0.0873 -2.69214,0 -3.79346,-0.0393 -2.4474,-0.0873 z m -47.624996,-9.525 c 1.346068,-0.048 3.548724,-0.048 4.894791,0 1.346068,0.048 0.24474,0.0873 -2.447395,0.0873 -2.692136,0 -3.793464,-0.0393 -2.447396,-0.0873 z m 57.149996,0 c 1.34607,-0.048 3.54873,-0.048 4.89479,0 1.34607,0.048 0.24474,0.0873 -2.44739,0.0873 -2.69214,0 -3.79346,-0.0393 -2.4474,-0.0873 z m 7.1759,-9.40031 c 0.11293,-0.1126 2.33968,-0.17185 4.94831,-0.13167 l 4.74298,0.0731 -4.94832,0.13167 c -2.72157,0.0724 -4.85591,0.0396 -4.74297,-0.0731 z m -73.850896,-0.12469 c 1.346068,-0.048 3.548724,-0.048 4.894792,0 1.346067,0.048 0.244739,0.0873 -2.447396,0.0873 -2.692135,0 -3.793464,-0.0393 -2.447396,-0.0873 z M 135.383,138.39922 c 0.11293,-0.1126 2.33968,-0.17185 4.94831,-0.13167 l 4.74298,0.0731 -4.94832,0.13167 c -2.72157,0.0724 -4.85591,0.0395 -4.74297,-0.0731 z m -92.900896,-0.12469 c 1.346068,-0.048 3.548724,-0.048 4.894792,0 1.346068,0.048 0.244739,0.0873 -2.447396,0.0873 -2.692135,0 -3.793463,-0.0393 -2.447396,-0.0873 z m 102.318226,-4.96224 0.009,-4.49792 4.7625,-0.009 4.7625,-0.009 -4.69013,0.081 -4.69013,0.081 -0.0817,4.42583 -0.0817,4.42583 0.009,-4.49792 z M 32.957104,128.74953 c 1.346068,-0.048 3.548724,-0.048 4.894792,0 1.346068,0.048 0.24474,0.0873 -2.447396,0.0873 -2.692135,0 -3.793463,-0.0393 -2.447396,-0.0873 z M 154.32767,110.02896 c 2e-5,-10.186461 0.0329,-14.315154 0.0731,-9.17488 0.0402,5.14028 0.0402,13.47466 -4e-5,18.52084 -0.0402,5.04618 -0.0731,0.8405 -0.073,-9.34596 z m -9.54144,-23.415627 c 0,-2.546615 0.0397,-3.588412 0.0882,-2.315105 0.0485,1.273308 0.0485,3.356901 0,4.630209 -0.0485,1.273307 -0.0882,0.23151 -0.0882,-2.315104 z"
         id="path63" />
      <path
         style="fill:#660000;stroke-width:0.264583"
         d="m 90.63627,100.7037 c 1.346068,-0.048 3.548724,-0.048 4.894792,0 1.346067,0.048 0.244739,0.0873 -2.447396,0.0873 -2.692136,0 -3.793464,-0.0393 -2.447396,-0.0873 z M 32.957104,91.178699 c 1.346068,-0.04802 3.548724,-0.04802 4.894792,0 1.346068,0.04802 0.24474,0.08731 -2.447396,0.08731 -2.692135,0 -3.793463,-0.03929 -2.447396,-0.08731 z m 48.154166,0 c 1.346068,-0.04802 3.548724,-0.04802 4.894792,0 1.346067,0.04802 0.244739,0.08731 -2.447396,0.08731 -2.692135,0 -3.793463,-0.03929 -2.447396,-0.08731 z m 19.05,0 c 1.34607,-0.04802 3.54872,-0.04802 4.89479,0 1.34607,0.04802 0.24474,0.08731 -2.44739,0.08731 -2.69214,0 -3.793468,-0.03929 -2.4474,-0.08731 z m 47.09583,0 c 1.34607,-0.04802 3.54873,-0.04802 4.89479,0 1.34607,0.04802 0.24474,0.08731 -2.44739,0.08731 -2.69214,0 -3.79347,-0.03929 -2.4474,-0.08731 z M 49.758146,81.652496 c 5.34789,-0.04002 14.098984,-0.04002 19.446874,0 5.347891,0.04002 0.972344,0.07277 -9.723437,0.07277 -10.695781,0 -15.071328,-0.03274 -9.723437,-0.07277 z m 66.939584,8e-6 c 5.20237,-0.04012 13.71534,-0.04012 18.91771,0 5.20237,0.04011 0.94588,0.07294 -9.45886,0.07294 -10.40474,0 -14.66122,-0.03282 -9.45885,-0.07294 z"
         id="path61" />
      <path
         style="fill:#000000;stroke-width:0.264583"
         d="m 87.791999,190.72687 v -4.63021 h 4.7625 4.7625 v 4.63021 4.63021 h -4.7625 -4.7625 z m -9.525,-9.525 v -4.63021 h 4.7625 4.7625 v 4.63021 4.63021 h -4.7625 -4.7625 z m 19.05,0 v -4.63021 h 4.762501 4.7625 v 4.63021 4.63021 h -4.7625 -4.762501 z M 68.742,171.67687 v -4.63021 h 4.7625 4.762499 v 4.63021 4.63021 H 73.5045 68.742 Z m 38.1,0 v -4.63021 h 4.61841 4.61841 l 0.0779,4.63054 0.078,4.63053 -4.69636,-2.6e-4 -4.69635,-3.9e-4 z m -47.625,-9.525 v -4.63021 h 4.7625 4.7625 v 4.63021 4.63021 H 63.9795 59.217 Z m 57.15,0 v -4.63021 h 4.61841 4.61841 l 0.0779,4.63054 0.078,4.63053 -4.69636,-2.6e-4 -4.69635,-3.9e-4 z m -66.675,-9.525 v -4.63021 h 4.7625 4.7625 v 4.63021 4.63021 H 54.4545 49.692 Z m 76.2,0 v -4.63021 h 4.61841 4.61841 l 0.0779,4.63054 0.0779,4.63053 -4.69636,-2.6e-4 -4.69635,-3.9e-4 z m -85.725,-9.525 v -4.63021 h 4.7625 4.7625 v 4.63021 4.63021 H 44.9295 40.167 Z m 95.25,0 v -4.63021 h 4.63021 4.6302 v 4.63021 4.63021 h -4.6302 -4.63021 z m -104.775,-9.525 v -4.6302 h 4.7625 4.7625 v 4.6302 4.63021 H 35.4045 30.642 Z m 114.3,0 v -4.6302 h 4.63021 4.6302 v 4.6302 4.63021 h -4.6302 -4.63021 z M 21.117001,110.02896 V 91.375833 H 25.8795 30.642 v 18.653127 18.65312 h -4.7625 -4.762499 z m 133.349999,0 V 91.375833 h 4.63021 4.6302 v 18.653127 18.65312 h -4.6302 -4.63021 z M 88.321166,96.006041 v -4.630208 h 4.7625 4.7625 v 4.630208 4.630209 h -4.7625 -4.7625 z M 30.642,86.481041 v -4.630208 h 4.7625 4.7625 v 4.630208 4.630208 H 35.4045 30.642 Z m 48.154166,0 v -4.630208 h 4.7625 4.7625 v 4.630208 4.630208 h -4.7625 -4.7625 z m 19.05,0 v -4.630208 h 4.762504 4.7625 v 4.630208 4.630208 h -4.7625 -4.762504 z m 47.095834,0 v -4.630208 h 4.63021 4.6302 v 4.630208 4.630208 h -4.6302 -4.63021 z m -104.775,-9.525 v -4.630208 h 19.314583 19.314583 v 4.630208 4.630208 H 59.481583 40.167 Z m 67.20417,0 v -4.630208 h 18.65312 18.65312 v 4.630208 4.630208 h -18.65312 -18.65312 z"
         id="path59" />
    </g>
  </g>
</svg>
