<?xml version="1.0" encoding="UTF-8" standalone="no"?>
<!-- Created with Inkscape (http://www.inkscape.org/) -->

<svg
   width="71.581184mm"
   height="100.61399mm"
   viewBox="0 0 71.581185 100.61399"
   version="1.1"
   id="svg5"
   inkscape:version="1.1 (c68e22c387, 2021-05-23)"
   sodipodi:docname="manoFullLogo.svg"
   xmlns:inkscape="http://www.inkscape.org/namespaces/inkscape"
   xmlns:sodipodi="http://sodipodi.sourceforge.net/DTD/sodipodi-0.dtd"
   xmlns="http://www.w3.org/2000/svg"
   xmlns:svg="http://www.w3.org/2000/svg">
  <sodipodi:namedview
     id="namedview7"
     pagecolor="#ffffff"
     bordercolor="#666666"
     borderopacity="1.0"
     inkscape:pageshadow="2"
     inkscape:pageopacity="0.0"
     inkscape:pagecheckerboard="0"
     inkscape:document-units="mm"
     showgrid="false"
     fit-margin-top="0"
     fit-margin-left="0"
     fit-margin-right="0"
     fit-margin-bottom="0"
     inkscape:zoom="1"
     inkscape:cx="148"
     inkscape:cy="201.5"
     inkscape:window-width="1920"
     inkscape:window-height="1016"
     inkscape:window-x="0"
     inkscape:window-y="27"
     inkscape:window-maximized="1"
     inkscape:current-layer="layer1" />
  <defs
     id="defs2" />
  <g
     inkscape:label="Layer 1"
     inkscape:groupmode="layer"
     id="layer1"
     transform="translate(-71.419898,-88.002999)">
    <path
       style="fill:#000000;stroke-width:0.264583"
       d="m 132.59941,188.14826 c -3.68869,-1.70781 -4.39187,-6.29333 -1.37168,-8.94506 2.77148,-2.4334 7.14912,-1.47362 8.68344,1.90378 1.20467,2.65179 -0.0375,5.78985 -2.78606,7.03803 -1.38316,0.62817 -3.1732,0.62944 -4.5257,0.003 z m 4.63291,-1.15202 c 1.26418,-0.8604 1.89026,-1.82936 2.03194,-3.14479 0.18635,-1.73032 -0.3874,-3.10083 -1.72447,-4.11911 -0.99301,-0.75626 -1.35038,-0.87204 -2.69142,-0.87204 -1.33863,0 -1.69863,0.11613 -2.6797,0.86442 -1.50974,1.15152 -2.07772,2.80906 -1.58885,4.63685 0.58012,2.169 1.98818,3.22744 4.29556,3.229 1.10273,0 1.70619,-0.15145 2.35694,-0.59433 z m -62.708947,-3.78709 v -5.17612 l 0.85146,0.0829 c 0.832985,0.0811 0.889609,0.17368 2.609311,4.26548 0.966816,2.3004 1.863582,4.15071 1.992809,4.11181 0.23739,-0.0715 0.436936,-0.49882 2.57578,-5.51624 1.111364,-2.6071 1.234567,-2.78323 2.001411,-2.86105 l 0.817145,-0.0829 v 5.17612 c 0,4.97864 -0.01995,5.17615 -0.522769,5.17615 -0.496943,0 -0.526354,-0.21894 -0.595313,-4.43177 l -0.07254,-4.43177 -1.839545,4.44315 c -2.496034,6.02879 -2.169681,6.15667 -5.70108,-2.23362 l -0.926041,-2.20019 -0.07254,4.42709 c -0.06896,4.20819 -0.09839,4.42711 -0.595312,4.42711 -0.502822,0 -0.522769,-0.19751 -0.522769,-5.17615 z m 19.314581,5.06262 c 0,-0.0827 0.458846,-1.19229 1.019656,-2.46579 0.560811,-1.27351 1.543077,-3.53748 2.182813,-5.03105 1.046101,-2.44229 1.227092,-2.70854 1.798492,-2.64583 0.632065,0.0694 1.065205,0.94266 4.660485,9.39631 0.35145,0.82634 0.34208,0.85989 -0.24053,0.85989 -0.49819,0 -0.7216,-0.29469 -1.25368,-1.65364 l -0.64743,-1.65365 -2.518893,-0.0751 -2.518899,-0.0751 -0.680363,1.66261 c -0.497136,1.21486 -0.831353,1.6854 -1.241007,1.74718 -0.308356,0.0465 -0.560644,0.0169 -0.560644,-0.0658 z m 6.088056,-6.49449 c -0.47236,-1.17184 -0.947869,-2.18562 -1.056684,-2.25287 -0.108813,-0.0673 -0.611563,0.85714 -1.117222,2.05419 l -0.919376,2.17649 1.876049,0.13229 c 1.03183,0.0728 1.921053,0.10713 1.976063,0.0764 0.055,-0.0308 -0.28647,-1.01468 -0.75883,-2.18649 z m 12.16819,1.43187 v -5.17612 l 0.83672,0.0829 c 0.75888,0.0752 1.09728,0.4725 3.63802,4.27136 l 2.8013,4.18843 0.0727,-4.25458 c 0.069,-4.03587 0.0996,-4.25458 0.59531,-4.25458 0.50255,0 0.52261,0.19796 0.52261,5.15938 v 5.15937 l -0.59531,-0.01 c -0.47149,-0.007 -1.22823,-0.94936 -3.63802,-4.52771 l -3.04271,-4.51819 -0.0724,4.52774 c -0.0689,4.30887 -0.0977,4.52771 -0.59531,4.52771 -0.50303,0 -0.52293,-0.19701 -0.52293,-5.17615 z M 85.635872,158.05593 c -3.809267,-0.57518 -5.166246,-1.0305 -5.823976,-1.95421 -0.900573,-1.26474 -1.781569,-3.68777 -2.346725,-6.45425 -0.448214,-2.19403 -0.660484,-2.71595 -1.468297,-3.61011 -1.616323,-1.78905 -1.182124,-2.96701 1.307428,-3.54689 6.013183,-1.40063 11.204704,-1.79451 19.047194,-1.4451 3.346979,0.14909 7.156974,0.3634 8.466664,0.47619 1.30969,0.11279 3.45281,0.11441 4.7625,0.003 5.90807,-0.50003 14.92144,-0.74509 17.99527,-0.48927 3.97004,0.33044 10.38322,1.4736 11.17417,1.99187 0.95959,0.62875 0.81687,2.05166 -0.31131,3.1039 -0.74282,0.69281 -0.96404,1.15845 -1.21904,2.5662 -0.81944,4.52323 -2.16683,7.51115 -3.73232,8.27659 -1.83126,0.89537 -5.35162,1.35853 -10.41302,1.36996 -3.91305,0.009 -5.0556,-0.0776 -6.40588,-0.48427 -3.06795,-0.92411 -4.53657,-2.7541 -5.88174,-7.32914 -0.6259,-2.12871 -0.99195,-2.92418 -1.60197,-3.48123 -1.06643,-0.97385 -1.97176,-1.16536 -3.05872,-0.64701 -1.17599,0.56078 -1.55995,1.20684 -2.36191,3.97422 -0.83984,2.89814 -1.51034,4.25471 -2.74439,5.55257 -1.22213,1.28535 -1.839165,1.59872 -4.191369,2.12876 -2.364804,0.5329 -7.655257,0.53179 -11.192559,-0.003 z m 9.962649,-0.90286 c 3.145459,-0.80286 4.430899,-1.59621 5.228849,-3.22718 0.81071,-1.65701 1.40753,-4.28368 1.63875,-7.21246 0.20971,-2.65592 0.0723,-2.80382 -3.341625,-3.5973 -3.056379,-0.71036 -10.556246,-1.00423 -13.407933,-0.52536 -3.537101,0.59396 -5.655593,1.14255 -6.23706,1.6151 -0.533746,0.43375 -0.588396,0.70448 -0.568555,2.81664 0.06115,6.50979 2.677319,10.0171 7.958288,10.66914 2.425798,0.29948 6.408469,0.0538 8.729286,-0.53858 z m 31.841519,0.5335 c 2.88541,-0.37121 4.96374,-1.46246 6.19775,-3.25416 1.22756,-1.78239 1.72742,-3.58931 1.91572,-6.92523 0.14325,-2.53759 0.12375,-2.6692 -0.47633,-3.21694 -1.6922,-1.54464 -12.04709,-2.49306 -17.29444,-1.58403 -6.29867,1.09114 -6.20006,1.0043 -5.6955,5.0152 0.57476,4.56898 1.58695,7.10385 3.2457,8.12845 2.53728,1.56729 7.88982,2.37929 12.1071,1.83671 z m 13.35494,-14.02638 c -0.0935,-0.15132 -0.38946,-1.19311 -0.65767,-2.3151 -0.57462,-2.4039 -1.34125,-4.28864 -2.3273,-5.72151 -0.69818,-1.0146 -0.71324,-1.1226 -0.74041,-5.30995 -0.0153,-2.35085 -0.11414,-4.73494 -0.21976,-5.29798 -0.93584,-4.98841 -7.93129,-10.95063 -15.96843,-13.60989 -7.66625,-2.53654 -18.70718,-2.36506 -27.439087,0.42616 -8.065314,2.57814 -14.11943,7.78259 -15.194898,13.06236 -0.164036,0.8053 -0.265382,3.06749 -0.225213,5.02708 0.07932,3.86947 0.192865,3.44371 -1.729372,6.48472 -0.490136,0.77539 -1.167662,2.52093 -1.617493,4.16719 -0.602271,2.20414 -0.875171,2.83287 -1.229609,2.83287 -0.518362,0 -0.836804,-1.46148 -1.441263,-6.61459 -1.162087,-9.90696 -0.592249,-18.26062 1.715509,-25.14882 3.636086,-10.85298 11.925733,-18.925247 22.631512,-22.038033 4.579724,-1.331587 6.157934,-1.573321 10.451044,-1.600779 5.66118,-0.03621 10.32671,0.996201 15.59885,3.451786 11.23982,5.235106 17.85549,14.195886 19.99266,27.079596 0.59531,3.58875 0.79105,11.01846 0.4147,15.74271 -0.3199,4.01624 -0.97305,9.00364 -1.23449,9.42666 -0.19309,0.31244 -0.57205,0.2908 -0.77928,-0.0445 z"
       id="path39" />
  </g>
</svg>
